<svg width="321" height="127" viewBox="0 0 321 127" fill="none" xmlns="http://www.w3.org/2000/svg">
<line y1="31.5" x2="321" y2="31.5" stroke="#6A6A6A"/>
<path d="M27.6 72.44C27.6 67.6933 28.4 63.5867 30 60.12C31.6533 56.6 33.8933 53.9333 36.72 52.12C39.5467 50.2533 42.72 49.32 46.24 49.32C49.1733 49.32 51.7067 49.9333 53.84 51.16C55.9733 52.3333 57.6 53.96 58.72 56.04V49.88H76.4V95H58.72V88.84C57.6 90.92 55.9733 92.5733 53.84 93.8C51.7067 94.9733 49.1733 95.56 46.24 95.56C42.72 95.56 39.5467 94.6533 36.72 92.84C33.8933 90.9733 31.6533 88.3067 30 84.84C28.4 81.32 27.6 77.1867 27.6 72.44ZM58.72 72.44C58.72 70.04 58.1067 68.1733 56.88 66.84C55.6533 65.5067 54.08 64.84 52.16 64.84C50.24 64.84 48.6667 65.5067 47.44 66.84C46.2133 68.1733 45.6 70.04 45.6 72.44C45.6 74.84 46.2133 76.7067 47.44 78.04C48.6667 79.3733 50.24 80.04 52.16 80.04C54.08 80.04 55.6533 79.3733 56.88 78.04C58.1067 76.7067 58.72 74.84 58.72 72.44ZM102.135 56.04C103.255 53.96 104.855 52.3333 106.935 51.16C109.068 49.9333 111.602 49.32 114.535 49.32C118.055 49.32 121.228 50.2533 124.055 52.12C126.882 53.9333 129.095 56.6 130.695 60.12C132.348 63.5867 133.175 67.6933 133.175 72.44C133.175 77.1867 132.348 81.32 130.695 84.84C129.095 88.3067 126.882 90.9733 124.055 92.84C121.228 94.6533 118.055 95.56 114.535 95.56C111.602 95.56 109.068 94.9733 106.935 93.8C104.855 92.5733 103.255 90.92 102.135 88.84V95H84.375V35.8H102.135V56.04ZM115.175 72.44C115.175 70.04 114.562 68.1733 113.335 66.84C112.108 65.5067 110.535 64.84 108.615 64.84C106.695 64.84 105.122 65.5067 103.895 66.84C102.668 68.1733 102.055 70.04 102.055 72.44C102.055 74.84 102.668 76.7067 103.895 78.04C105.122 79.3733 106.695 80.04 108.615 80.04C110.535 80.04 112.108 79.3733 113.335 78.04C114.562 76.7067 115.175 74.84 115.175 72.44ZM160.19 95.56C155.657 95.56 151.577 94.6267 147.95 92.76C144.323 90.8933 141.47 88.2267 139.39 84.76C137.363 81.24 136.35 77.1333 136.35 72.44C136.35 67.7467 137.363 63.6667 139.39 60.2C141.47 56.68 144.323 53.9867 147.95 52.12C151.577 50.2533 155.657 49.32 160.19 49.32C164.723 49.32 168.803 50.2533 172.43 52.12C176.057 53.9867 178.883 56.68 180.91 60.2C182.99 63.6667 184.03 67.7467 184.03 72.44C184.03 77.1333 182.99 81.24 180.91 84.76C178.883 88.2267 176.057 90.8933 172.43 92.76C168.803 94.6267 164.723 95.56 160.19 95.56ZM160.19 80.2C161.843 80.2 163.23 79.56 164.35 78.28C165.47 76.9467 166.03 75 166.03 72.44C166.03 69.88 165.47 67.96 164.35 66.68C163.23 65.3467 161.843 64.68 160.19 64.68C158.537 64.68 157.15 65.3467 156.03 66.68C154.91 67.96 154.35 69.88 154.35 72.44C154.35 75 154.883 76.9467 155.95 78.28C157.07 79.56 158.483 80.2 160.19 80.2ZM237.369 49.88V95H219.609V88.12C218.223 90.2533 216.356 91.9867 214.009 93.32C211.716 94.6533 208.969 95.32 205.769 95.32C200.596 95.32 196.543 93.5867 193.609 90.12C190.729 86.6533 189.289 81.96 189.289 76.04V49.88H206.969V73.8C206.969 75.9333 207.529 77.64 208.649 78.92C209.823 80.1467 211.369 80.76 213.289 80.76C215.263 80.76 216.809 80.1467 217.929 78.92C219.049 77.64 219.609 75.9333 219.609 73.8V49.88H237.369ZM273.471 79.88V95H266.751C254.377 95 248.191 88.84 248.191 76.52V64.68H242.591V49.88H248.191V39H265.951V49.88H273.311V64.68H265.951V76.84C265.951 77.9067 266.191 78.68 266.671 79.16C267.204 79.64 268.057 79.88 269.231 79.88H273.471ZM289.034 95.64C285.941 95.64 283.461 94.8133 281.594 93.16C279.728 91.5067 278.794 89.4267 278.794 86.92C278.794 84.36 279.728 82.2533 281.594 80.6C283.461 78.8933 285.941 78.04 289.034 78.04C292.074 78.04 294.528 78.8933 296.394 80.6C298.261 82.2533 299.194 84.36 299.194 86.92C299.194 89.4267 298.261 91.5067 296.394 93.16C294.528 94.8133 292.074 95.64 289.034 95.64Z" fill="#404040"/>
<line y1="101.5" x2="321" y2="101.5" stroke="#6A6A6A"/>
<line x1="302.5" x2="302.5" y2="118" stroke="#6A6A6A"/>
<line x1="21.5" x2="21.5" y2="118" stroke="#6A6A6A"/>
<ellipse cx="25.5" cy="27" rx="18.5" ry="17" fill="#11BA0F"/>
</svg>
